<?xml version="1.0" encoding="UTF-8" standalone="no"?>
<svg xmlns:svg="http://www.w3.org/2000/svg" xmlns="http://www.w3.org/2000/svg" id="svg1439" version="1.1" width="1024" height="663" viewBox="-1.37287593 -1.37287593 74.90200986 48.50828286">
  <defs id="defs1436" />
  <path d="m 24.42856,11.97866 c 3.64666,-6.22666 10.31466,-10.4 17.94533,-10.4 7.62666,0 14.29466,4.17334 17.94133,10.4 h 3.084 C 59.34855,4.84666 51.45389,0 42.37389,0 33.28989,0 25.39256,4.84666 21.34322,11.97866 Z" style="fill:#d70110;fill-opacity:1;fill-rule:nonzero;stroke:none;stroke-width:1.33333325" id="path1120" />
  <path id="path1064" d="m 21.23242,13.98696 c -5.27866,0 -7.46094,2.49958 -7.46094,5.76758 0,3.27467 1.94228,5.77344 7.46094,5.77344 h 0.0195 c 5.27334,0 7.45899,-2.49877 7.45899,-5.77344 0,-3.27067 -1.94299,-5.76758 -7.45899,-5.76758 z m 43.44336,0 c -5.276,0 -7.45898,2.49958 -7.45898,5.76758 0,3.27467 1.94431,5.77344 7.45898,5.77344 h 0.0215 c 5.276,0 7.45898,-2.49877 7.45898,-5.77344 0,-3.27067 -1.94165,-5.76758 -7.45898,-5.76758 z M 7.16016,14.3229 C 1.88549,14.3229 0,16.63321 0,19.75454 c 0,3.12667 1.64416,5.43555 7.16016,5.43555 h 5.18945 V 22.8229 H 7.19922 c -2.56933,0 -3.00195,-1.32169 -3.00195,-3.06836 0,-1.74267 0.45191,-3.0625 3.14257,-3.0625 h 5.00977 V 14.3229 Z m 26.96679,0 c -1.65466,0 -3.99414,0.90048 -3.99414,3.25781 0,2.35733 2.33948,3.24219 3.99414,3.24219 h 2.1543 c 1.06,0 1.33203,0.33662 1.33203,1.00195 0,0.668 -0.27203,0.99805 -1.33203,0.99805 H 30.5918 v 2.36719 h 7.43359 c 1.65867,0 3.99414,-0.9011 3.99414,-3.25977 0,-2.356 -2.33547,-3.23828 -3.99414,-3.23828 h -2.44531 c -1.06267,0 -1.33594,-0.33138 -1.33594,-0.99805 0,-0.66666 0.27327,-1.00195 1.33594,-1.00195 h 5.80078 V 14.3229 Z m 16.47852,0 c -5.27467,0 -7.16016,2.31031 -7.16016,5.43164 0,3.12667 1.64416,5.43555 7.16016,5.43555 h 5.18945 V 22.8229 h -5.14844 c -2.57333,0 -3.0039,-1.32169 -3.0039,-3.06836 0,-1.74267 0.45324,-3.0625 3.14258,-3.0625 h 5.00976 V 14.3229 Z m -29.63086,2.0918 h 0.53516 c 2.568,0 3.00195,1.84384 3.00195,3.33984 0,1.5 -0.31129,3.3457 -3.00195,3.3457 h -0.53516 c -2.572,0 -3.00391,-1.60037 -3.00391,-3.3457 0,-1.744 0.31191,-3.33984 3.00391,-3.33984 z m 43.44531,0 h 0.5332 c 2.56934,0 3.00586,1.84384 3.00586,3.33984 0,1.5 -0.31252,3.3457 -3.00586,3.3457 h -0.5332 c -2.57066,0 -3.00586,-1.60037 -3.00586,-3.3457 0,-1.744 0.3152,-3.33984 3.00586,-3.33984 z" style="fill:#00508e;fill-opacity:1;fill-rule:nonzero;stroke:none;stroke-width:1.33333325" />
  <path id="path1112" d="m 29.78516,6.3e-4 c -9.084,0 -16.9813,4.84652 -21.0293,11.97852 h 3.08398 C 15.48518,5.75248 22.15449,1.57876 29.78516,1.57876 c 7.62666,0 14.29412,4.17372 17.93945,10.40039 h 3.08984 C 46.76379,4.84715 38.86649,6.3e-4 29.78516,6.3e-4 Z M 10.36133,36.2311 c 4.344,5.772 11.42249,9.53125 19.42383,9.53125 7.99733,0 15.07725,-3.75925 19.41992,-9.53125 h -3.15039 c -3.82667,4.84934 -9.69353,7.95703 -16.26953,7.95703 -6.57867,0 -12.44544,-3.10769 -16.27344,-7.95703 z" style="fill:#00508e;fill-opacity:1;fill-rule:nonzero;stroke:none;stroke-width:1.33333325" />
  <path d="m 58.64309,36.23186 c -3.82934,4.84933 -9.692,7.956 -16.26934,7.956 -6.58133,0 -12.444,-3.10667 -16.27466,-7.956 h -3.14933 c 4.34533,5.772 11.41999,9.53067 19.42399,9.53067 7.99734,0 15.07734,-3.75867 19.42,-9.53067 z" style="fill:#d70110;fill-opacity:1;fill-rule:nonzero;stroke:none;stroke-width:1.33333325" id="path1116" />
</svg>
