<?xml version="1.0" encoding="UTF-8"?>
<svg width="1030" height="187.41" xmlns="http://www.w3.org/2000/svg" viewBox="0 0 1030 187.41">
  <title>Evergreen Logo</title>
  <path d="M191.12 93.68a87.43 87.43 0 1 1-174.86 0 87.43 87.43 0 0 1 174.86 0" fill="#ffffff"/>
  <path d="M103.7 5A88.72 88.72 0 0 0 15 93.7a88.72 88.72 0 0 0 88.7 88.71 88.72 88.72 0 0 0 88.7-88.7A88.72 88.72 0 0 0 103.7 5m3.5 2.51a85.6 85.6 0 0 1 38.48 10.95 51.1 51.1 0 0 1-9.5 10.4 104.93 104.93 0 0 0-28.97-21.34m-7.02 0a104.96 104.96 0 0 0-28.94 21.3 50 50 0 0 1-9.32-10.47A85.6 85.6 0 0 1 100.2 7.52m1.29 1.75a164.46 164.46 0 0 0-16.14 27.8c-4.38-1.7-8.5-4.01-12.33-6.98a103.13 103.13 0 0 1 28.47-20.82m4.44 0a103.1 103.1 0 0 1 28.49 20.83 49.94 49.94 0 0 1-12.37 6.92 164.54 164.54 0 0 0-16.12-27.75" fill="#fe3501"/>
  <g fill="#008738">
    <path d="M672.47 50.02v88.22h27.87v-30.66h15.22c4.03 0 7.64 3.17 7.64 7.2v23.46h27.89V104.4c0-5.34-2.92-6.59-5.12-6.75 2.2-.04 5.12-1.54 5.12-6.93V62.67c0-10.33-4.68-12.65-11.96-12.65h-66.66m27.87 21.83h18.64c2.82 0 4.22 1.66 4.22 4.48v7.28c0 2.81-1.4 4.12-4.22 4.12h-18.64V71.85"/>
    <path d="M846.19 50.02h76.63v21.83h-48.76v11.9h48.76v19.66h-48.76v13.1h48.76v21.73h-76.63V50.02"/>
    <path d="M760.61 50.02h76.63v21.83h-48.76v11.9h48.76v19.66h-48.76v13.1h48.76v21.73H760.6V50.02"/>
    <path d="M230.28 50.02h76.63v21.83h-48.76v11.9h48.76v19.66h-48.76v13.1h48.76v21.73h-76.63V50.02"/>
    <path d="M931.4 50.02h28.7l26 47.14V50.02h28.9v88.22h-28.9l-26-48.03v48.03h-28.7V50.02"/>
    <path d="M588.62 136.63a18.6 18.6 0 0 1-5.47-4.56c-2-2.7-2.06-3.96-2.06-37.9 0-47.77-3.33-44.16 40.8-44.16 26.44 0 30.25.2 33.3 1.73 5.63 2.83 7.48 7.19 7.49 17.62v8.93l-27.67.12v-2.79c0-1.84-2.2-3.78-4.04-3.78h-17.5c-2.01 0-4.33 2.2-4.33 4.22v35.97c0 2.08 2.26 4.48 4.34 4.48h17.4c2.05 0 4.13-2.48 4.13-4.51v-6.41h-14.93V87.3l42.6-.09v20.35c0 22.21-.4 24.23-5.78 28.2-2.7 1.99-4.15 2.2-33.84 2.46-28.06.24-31.35-.01-34.44-1.6"/>
    <path d="M493.01 50.02v88.22h27.87v-30.66h15.22c4.03 0 7.64 3.17 7.64 7.2v23.46h27.89V104.4c0-5.34-2.92-6.59-5.12-6.75 2.2-.04 5.12-1.54 5.12-6.93V62.67c0-10.33-4.68-12.65-11.96-12.65h-66.66m27.87 21.83h18.64c2.82 0 4.22 1.66 4.22 4.48v7.28c0 2.81-1.4 4.12-4.22 4.12h-18.64V71.85"/>
    <path d="M407.43 50.02h76.63v21.83H435.3v11.9h48.76v19.66H435.3v13.1h48.76v21.73h-76.63V50.02"/>
    <path d="M311.73 50.02h29.75l15.09 56.57 15.15-56.57h29.87l-29.32 88.22h-31.41l-29.13-88.22"/>
  </g>
</svg>
