<?xml version="1.0" encoding="UTF-8" standalone="no"?>
<svg width="130px" height="20px" viewBox="0 0 130 20" version="1.1" xmlns="http://www.w3.org/2000/svg" xmlns:xlink="http://www.w3.org/1999/xlink">
    <title>Hapag-Lloyd Logo</title>
    <defs/>
    <g id="Homepage-Initial" stroke="none" stroke-width="1" fill="none" fill-rule="evenodd">
        <g id="Hapag-Lloyd-Logo" transform="translate(95.000000, 17.000000)">
            <g id="Hapag-Lloyd-Logo-inner" transform="translate(-95.000000, -17.000000)">
                <path d="M7.86133803,0 L16.5576056,0 L11.1397183,9.04323944 L12.5623944,9.04323944 L17.9940141,0 L26.7433803,0 L21.3259507,9.04323944 L27.3924648,9.04323944 L24.9412324,13.0544718 L18.880669,13.0517254 L23.5982042,19.5448592 L14.8602817,19.5448592 L10.1496127,13.0544718 L8.65369718,13.0544718 L13.3671127,19.5448592 L4.73309859,19.5448592 L0,13.0544718 L7.86133803,0" fill="#111465"/>
                <path d="M37.8364085,16.4962676 L40.5206338,16.4962676 L40.5206338,11.2303521 L45.462007,11.2303521 L45.462007,16.4962676 L48.1462324,16.4962676 L48.1462324,4.28862676 L45.462007,4.28862676 L45.462007,8.97366197 L40.5206338,8.97366197 L40.5206338,4.28862676 L37.8364085,4.28862676 L37.8364085,16.4962676" fill="#000000"/>
                <path d="M91.6014789,16.4962676 L100.235493,16.4962676 L100.235493,14.2395775 L94.2857042,14.2395775 L94.2857042,4.28862676 L91.6014789,4.28862676 L91.6014789,16.4962676" fill="#000000"/>
                <path d="M100.799894,16.4962676 L103.227782,16.4962676 L103.227782,4.28908451 L100.799894,4.28908451 L100.799894,16.4962676 Z" fill="#000000"/>
                <path d="M103.774331,12.0854225 C103.774331,14.8891197 105.569613,16.735669 108.339437,16.735669 C111.126197,16.735669 112.921479,14.8891197 112.921479,12.0854225 C112.921479,9.26433099 111.126197,7.41778169 108.339437,7.41778169 C105.569613,7.41778169 103.774331,9.26433099 103.774331,12.0854225 Z M106.202218,12.0854225 C106.202218,10.6659507 106.697958,9.24693662 108.339437,9.24693662 C109.997852,9.24693662 110.493592,10.6659507 110.493592,12.0854225 C110.493592,13.4870423 109.997852,14.9060563 108.339437,14.9060563 C106.697958,14.9060563 106.202218,13.4870423 106.202218,12.0854225 Z" fill="#000000"/>
                <path d="M127.488803,16.4962676 L129.796761,16.4962676 L129.796761,4.28862676 L127.368873,4.28862676 L127.368873,8.73426056 L127.335,8.73426056 C126.787535,7.86225352 125.761725,7.41778169 124.718979,7.41778169 C122.120352,7.41778169 120.803415,9.62320423 120.803415,11.9998239 C120.803415,14.4446479 122.102958,16.735669 124.770246,16.735669 C125.898592,16.735669 126.890528,16.3255282 127.454472,15.3679225 L127.488803,15.3679225 L127.488803,16.4962676 Z M127.454472,12.0510915 C127.454472,13.5044366 126.975669,14.9060563 125.368521,14.9060563 C123.863908,14.9060563 123.231303,13.4527113 123.231303,12.0680282 C123.231303,10.6146831 123.778768,9.24693662 125.368521,9.24693662 C126.941796,9.24693662 127.454472,10.6146831 127.454472,12.0510915 Z" fill="#000000"/>
            </g>
        </g>
    </g>
</svg>
