<?xml version="1.0" encoding="utf-8"?>
<svg version="1.1" id="Capa_1" xmlns="http://www.w3.org/2000/svg" xmlns:xlink="http://www.w3.org/1999/xlink" x="0px" y="0px"
	 viewBox="0 0 1148 301" style="enable-background:new 0 0 1148 301;" xml:space="preserve">
<style type="text/css">
	.st0{fill:#FFFFFF;}
</style>
<path class="st0" d="M106.5,119.5c0,0-6,2.3-12.6,6.8s-16.5,14.4-16.5,14.4l-2.2-0.8l-3.9-2.2l-2.1-1.4l-3-3l-2.6-3.8l-1-2.2
	l-0.8-2.2l-0.9-4.6v-4.9l0.9-4.2l0.8-2.3l0.9-2l2.5-3.8l3.2-3.2l3.8-2.6l2.1-1l2-0.8l4.8-1h4.5l4.6,0.9l2.2,0.8l2.1,0.9l3.7,2.6
	l1.8,1.6l1.5,1.6l1.4,1.9l2.2,3.9l0.8,2.3l0.5,2.3l0.3,2.2l0.1,2.5v0.8L106.5,119.5z M105.1,118.3l-0.1-2.2l-0.3-2l-0.4-2l-0.7-1.9
	l-2-3.5l-1.3-1.6l-1.3-1.4l-1.5-1.4l-3.3-2.3l-1.8-0.8l-2-0.7l-4.1-0.8h-4.1L78,98.6l-3.6,1.5l-3.4,2.3l-2.8,2.8l-2.3,3.4l-1.5,3.7
	l-0.8,3.9v4.4l0.8,4l1.6,3.8l2.3,3.4l2.7,2.7l3.4,2.1l1.9,1l1.8,0.7c0,0,15.5-16.8,26-18.8l0.9-0.5v-0.7H105.1z"/>
<path class="st0" d="M84.5,66.2L84.5,66.2h-4l-4,0.3l-3.9,0.6l-3.7,0.6L65,68.6l-3.5,1l-3.8,1.2l-3.4,1.4l-3.6,1.6l-3.3,1.6l-3.3,2
	l-3.2,1.9l-3.1,2.2L35,83.7l-2.9,2.4l-2.7,2.6l-2.7,2.7l-2.4,2.8l-2.4,3l-2.1,3l-2.1,3.1l-1.8,3.3l-1.8,3.3l-1.5,3.4l-1.5,3.5
	l-1.2,3.7l-1.1,3.6l-0.9,3.7l-0.6,3.9l-0.4,3.9l-0.5,3.9v3.9v4.1l0.5,3.9l0.4,3.9l0.6,3.9l0.9,3.7l1.1,3.6l1.2,3.6l1.5,3.6l1.5,3.4
	l1.8,3.3l1.8,3.3l2.1,3.1l2.1,3l2.4,3l2.4,2.7l2.7,2.7l2.7,2.7l2.9,2.4l2.8,2.2l3.1,2.3l3.2,1.9l3.3,2l3.3,1.6l3.6,1.5l3.4,1.5
	l3.6,1.2l3.7,1.1l3.9,0.7l3.7,0.7l3.9,0.5l4,0.3l4,0.1l4-0.1l3.9-0.3l3.9-0.5l3.9-0.7l3.7-0.7l3.8-1.1l3.6-1.2l3.6-1.5l3.4-1.5
	l3.3-1.6l3.3-2l3.1-1.9l3.1-2.3l3-2.2l2.8-2.4l2.7-2.7l2.5-2.7l2.4-2.7l2.4-3l2.1-3l2.1-3.1l1.9-3.3l1.6-3.3l1.6-3.4l1.3-3.6
	l1.2-3.6l1-3.6l0.9-3.7l0.7-3.9l0.4-3.9l0.3-3.9l0.2-4.1l-0.2-3.9l-0.3-4l-0.4-3.8l-0.7-3.9l-0.9-3.7l-1-3.8l-1.2-3.6l-1.3-3.5
	l-1.6-3.4l-1.6-3.3l-1.9-3.3l-2.1-3.1l-2.1-3l-2.4-3l-2.4-2.8l-2.5-2.7l-2.7-2.6l-2.8-2.4l-3-2.2l-3-2.2l-3.3-1.9l-3.3-2l-3.3-1.6
	l-3.4-1.6l-3.6-1.4l-3.6-1.2l-3.8-1l-3.7-0.9L96.2,67l-3.9-0.6l-3.9-0.3h-3.9V66.2z M84.6,218L84.6,218l-3.9-0.2l-3.9-0.3l-3.7-0.4
	l-3.6-0.6l-3.8-0.9l-3.4-1l-3.6-1.2l-3.3-1.2l-3.5-1.5l-3.1-1.6l-3.1-1.8l-3.1-2l-2.8-2.1l-2.8-2.3l-2.7-2.2l-2.7-2.6l-2.4-2.5
	l-2.4-2.7l-2.2-2.8l-2.1-3l-2-3l-1.8-3.2l-1.6-3.1l-1.5-3.3l-1.4-3.4l-1.2-3.4l-1-3.5l-0.8-3.6l-0.7-3.8l-0.5-3.7l-0.3-3.7l-0.1-3.9
	l0.1-3.7l0.3-3.7l0.5-3.7l0.7-3.8L12,125l1-3.4l1.2-3.4l1.4-3.5l1.5-3.3l1.6-3.3l1.8-3l2-3.1l2.1-2.8l2.2-2.8l2.4-2.7l2.4-2.6
	l2.7-2.5l2.7-2.3l2.8-2.2l2.8-2.1l3.1-1.9l3.1-1.8l3.1-1.6l3.5-1.5l3.3-1.3l3.6-1l3.6-1.1l3.6-0.9l3.6-0.6l3.9-0.4l3.8-0.3l3.9-0.2
	l3.9,0.2l3.7,0.3l3.8,0.4l3.7,0.6l3.6,0.9l3.6,1.1l3.4,1l3.4,1.3l3.3,1.5l3.3,1.6l3.1,1.8l3,1.9l3,2.1l2.8,2.2l2.7,2.3l2.5,2.5
	l2.5,2.6l2.4,2.7l2.2,2.8l2.1,2.8l1.9,3.1l1.8,3l1.6,3.3l1.5,3.3l1.4,3.3l1.2,3.6l0.9,3.4l0.9,3.6l0.6,3.8l0.6,3.7l0.1,3.7l0.1,3.7
	l-0.1,3.9l-0.1,3.7l-0.6,3.7l-0.6,3.8l-0.9,3.6l-0.9,3.5l-1.2,3.4l-1.4,3.4l-1.5,3.3l-1.6,3.1l-1.8,3.2l-2.1,3l-2,3l-2.2,2.8
	l-2.4,2.7l-2.5,2.5l-2.5,2.4l-2.7,2.4l-2.8,2.3l-3,2.1l-3,2l-3.1,1.8l-3.3,1.6l-3.3,1.5l-3.4,1.2l-3.4,1.2l-3.6,1l-3.6,0.9l-3.7,0.6
	l-3.8,0.4l-3.7,0.3L84.6,218z"/>
<g>
	<g>
		<defs>
			<path id="SVGID_1_" d="M9.2,143.7c0,41.3,33.6,74.7,75.2,74.7c41.5,0,75.1-33.5,75.1-74.7c0-41.3-33.6-74.8-75.1-74.8
				C42.8,68.9,9.2,102.4,9.2,143.7z"/>
		</defs>
		<clipPath id="SVGID_00000145019842941510755050000013399929137849922958_">
			<use xlink:href="#SVGID_1_"  style="overflow:visible;"/>
		</clipPath>
		<path style="clip-path:url(#SVGID_00000145019842941510755050000013399929137849922958_);fill:#FFFFFF;" d="M138.8,129.5
			c-2.7,23.1,7.2,41.9,7.2,41.9c11.4,22.2,23.7,30,23.7,30l-11.5,4.6c-12-13.6-17.7-33.5-17.7-33.5c-7-20.5-4.1-37.2-2.5-43.5
			c-2-1-4-2-6.1-2.9c-9.3,25-3.3,47.5-3.3,47.5c6.7,26.2,18.2,36.8,18.2,36.8l-13.9,3c-9.6-16.9-10.7-39.6-10.7-39.6
			c-2.4-23.8,5.5-41.7,8.8-48.2c-2.7-1.2-5.4-2.2-8.2-3.1c-16.9,28.8-13.5,58.3-13.5,58.3c3.5,32.4,15.2,47.2,15.2,47.2l-17,1
			c-8.4-21.9-5.8-49.1-5.8-49.1c1.4-32.6,17-53.7,20.3-57.8c-2.1-0.6-4.2-1.2-6.3-1.7C92,143.6,87,172.5,87,172.5
			c-5.9,32.8,1.3,50.7,1.3,50.7l-17-3.9c-2-23.9,8.4-49.8,8.4-49.8c9.7-28.2,27.8-44.1,34.6-49.3c-1.9-0.4-3.8-0.8-5.7-1
			c-29.4,18-40.4,46.7-40.4,46.7c-12.3,31-8.7,50-8.7,50l-15.9-7.2c2.8-23.8,18.1-47.2,18.1-47.2c16.5-28.3,40.2-40.2,45.6-42.6
			c-4.7-0.7-9.6-1.1-14.6-1.1c-46.9,0-84.9,32.3-84.9,72.1s38,72.1,84.9,72.1s84.9-32.3,84.9-72.1
			C177.8,164.6,162.2,142.3,138.8,129.5"/>
	</g>
</g>
<path class="st0" d="M301.4,113.9c-4.5-17.6-15.8-30.4-38.1-30.4c-32.8,0-46.5,28.9-46.5,58.2s13.7,58.3,46.5,58.3
	c23.8,0,36.8-17.8,39-40.1h26.1c-2.1,36.6-28.1,61.9-65.1,61.9c-45.8,0-73.2-36.4-73.2-80.1s27.4-80.1,73.2-80.1
	c34.5,0.2,61.7,19.3,64.9,52.3L301.4,113.9L301.4,113.9z"/>
<path class="st0" d="M436.7,193.6c0,6,1.3,8.4,5.8,8.4c1.5,0,3.4,0,6-0.4v16.9c-3.6,1.3-11.3,2.8-15.4,2.8
	c-9.9,0-16.9-3.4-18.8-13.5c-9.6,9.4-25.3,13.5-38.3,13.5c-19.9,0-37.9-10.7-37.9-32.3c0-27.6,22.1-32.1,42.6-34.5
	c17.6-3.2,33.2-1.3,33.2-15.6c0-12.6-13.1-15-22.9-15c-13.7,0-23.3,5.6-24.4,17.6h-24.4c1.7-28.5,25.9-36.8,50.3-36.8
	c21.6,0,44.3,8.8,44.3,32.1v56.8H436.7z M412.3,162.7c-7.5,4.9-19.3,4.7-30,6.6c-10.5,1.7-19.9,5.6-19.9,18.4
	c0,10.9,13.9,14.1,22.5,14.1c10.7,0,27.4-5.6,27.4-21V162.7z"/>
<path class="st0" d="M457.7,107.5h23.1v15.4h0.6c7.3-10.9,16.5-18.4,34.1-18.4c13.5,0,26.1,5.8,31,18.4
	c8.1-11.3,18.6-18.4,34.7-18.4c23.3,0,37.1,10.3,37.1,37.3v76.5h-24.4v-64.7c0-17.6-1.1-29.8-20.1-29.8c-16.5,0-23.6,10.9-23.6,29.6
	v64.9h-24.4v-71.1c0-15.2-4.7-23.3-19.5-23.3c-12.6,0-24.2,10.3-24.2,28.7v65.7h-24.4L457.7,107.5L457.7,107.5z"/>
<path class="st0" d="M639.3,107.5h23.1v15h0.4c6.8-12.6,20.1-18,34.3-18c34.9,0,51.8,26.6,51.8,58.9c0,29.8-15,57.8-47.7,57.8
	c-14.1,0-29.4-5.1-37.1-17.3h-0.4v55.3h-24.4L639.3,107.5L639.3,107.5z M693.9,123.8c-20.6,0-31.1,15.6-31.1,39.2
	c0,22.3,11.3,39,31.1,39c22.3,0,30.6-19.7,30.6-39C724.6,142.8,714.1,123.8,693.9,123.8"/>
<path class="st0" d="M759,162.7c0-33.8,20.3-58.3,55.9-58.3c35.5,0,55.9,24.4,55.9,58.3c0,34.1-20.3,58.5-55.9,58.5
	C779.4,221.2,759,196.8,759,162.7 M846.4,162.7c0-19.1-9.6-39-31.5-39c-21.8,0-31.5,19.9-31.5,39c0,19.3,9.6,39.2,31.5,39.2
	C836.8,201.9,846.4,182,846.4,162.7"/>
<path class="st0" d="M904.2,182.6c1.3,14.1,12,19.3,25.1,19.3c9.2,0,25.3-1.9,24.6-14.6c-0.7-12.8-18.4-14.4-36.2-18.4
	c-18-3.9-35.5-10.3-35.5-32.8c0-24.2,26.1-31.7,46.3-31.7c22.7,0,43.3,9.4,46.3,34h-25.5c-2.1-11.6-11.8-14.8-22.5-14.8
	c-7.1,0-20.1,1.7-20.1,11.3c0,12,18,13.7,36,17.8c17.8,4.1,35.8,10.5,35.8,32.3c0,26.3-26.6,36-49.5,36c-27.9,0-48.6-12.4-49-38.5
	L904.2,182.6L904.2,182.6z"/>
<path class="st0" d="M986.5,162.7c0-33.8,20.3-58.3,55.9-58.3c35.5,0,55.9,24.4,55.9,58.3c0,34.1-20.3,58.5-55.9,58.5
	S986.5,196.8,986.5,162.7 M1073.8,162.7c0-19.1-9.6-39-31.5-39c-21.8,0-31.5,19.9-31.5,39c0,19.3,9.6,39.2,31.5,39.2
	C1064.2,201.9,1073.8,182,1073.8,162.7"/>
<rect x="1113.9" y="65.3" class="st0" width="24.4" height="152.9"/>
</svg>
