<svg id="Capa_1" data-name="Capa 1" xmlns="http://www.w3.org/2000/svg" viewBox="0 0 774 883"><defs><style>.cls-1{fill:#37b550;}.cls-2{fill:#135c43;}.cls-3{fill:none;stroke:#000;stroke-width:0.72px;}.cls-4{fill:#ee292b;}.cls-5{fill:#dc232a;}</style></defs><path class="cls-1" d="M759.74,279.59l-.06-137.07s-138.95-12.6-274.1,76.94c0,0,74.52,29.33,109.7,74.81C595.28,294.27,703.08,246.7,759.74,279.59Z"/><path class="cls-1" d="M16,283,15.9,145.91S195,136.08,282.53,218.27c0,0-81.56,37.09-116.71,82.59C165.82,300.86,72.59,250.05,16,283Z"/><path class="cls-2" d="M759.73,272.27s-100.5-25.54-164.45,22c0,0,69.49,69.41,86,175.41l78.56,0Z"/><path class="cls-2" d="M16,272.61S101.81,247,165.82,294.46c0,0-58.46,69.48-74.84,175.48l-74.93,0Z"/><path class="cls-2" d="M494.69,131.07l0-79.2s-90.17-25.53-101.09,79.24l0,51.32h5.65S395.9,115.8,494.69,131.07Z"/><path class="cls-2" d="M375.47,182.44S388.2,67.77,354.38,33.51c0,0-26.51-29.68-79-22.34l0,77.66s82.23-9.68,90,56.57c0,0,3.67,28.82,3.66,37Z"/><path d="M6.29,617V516.08H26.67V555.8H66.59V516.08H87V617H66.59V572.87H26.67V617Z"/><path d="M98.69,567.16q0-15.42,4.61-25.89a47.42,47.42,0,0,1,9.39-13.83,39.52,39.52,0,0,1,13-9.09,55.46,55.46,0,0,1,21.76-4q22.29,0,35.69,13.84t13.38,38.47q0,24.44-13.28,38.24T147.76,618.7Q125.25,618.7,112,605T98.69,567.16Zm21-.69q0,17.13,7.91,26a27.21,27.21,0,0,0,40.1.07q7.8-8.78,7.81-26.33,0-17.34-7.6-25.88t-20.21-8.53q-12.6,0-20.3,8.63T119.68,566.47Z"/><path d="M207.31,617V516.08H250.2q16.17,0,23.5,2.72a23.26,23.26,0,0,1,11.74,9.67,29.06,29.06,0,0,1,4.4,15.9q0,11.36-6.67,18.76t-20,9.32a47.27,47.27,0,0,1,10.9,8.47q4.31,4.62,11.6,16.38L298,617H273.67l-14.73-22q-7.84-11.76-10.74-14.83a15.59,15.59,0,0,0-6.13-4.2q-3.23-1.14-10.25-1.14h-4.13V617Zm20.38-58.24h15.07q14.67,0,18.31-1.23a11,11,0,0,0,5.71-4.27,13.11,13.11,0,0,0,2.07-7.57,12.14,12.14,0,0,0-2.72-8.23,12.56,12.56,0,0,0-7.67-4q-2.47-.33-14.87-.34h-15.9Z"/><path d="M326.55,617V533.15H296.61V516.08h80.18v17.07H346.92V617Z"/><path d="M384.1,617V516.08h20.38V617Z"/><path d="M418.81,617V516.08H488v17.07H439.18V557h42.13v17.07H439.18V617Z"/><path d="M499.63,617V516.08h42.89q16.15,0,23.5,2.72a23.26,23.26,0,0,1,11.74,9.67,29.15,29.15,0,0,1,4.4,15.9q0,11.36-6.67,18.76t-20,9.32a47.13,47.13,0,0,1,10.91,8.47q4.3,4.62,11.6,16.38L590.36,617H566l-14.73-22q-7.85-11.76-10.74-14.83a15.59,15.59,0,0,0-6.13-4.2c-2.16-.76-5.57-1.14-10.26-1.14H520V617ZM520,558.75h15.07q14.65,0,18.31-1.23a11,11,0,0,0,5.71-4.27,13.11,13.11,0,0,0,2.07-7.57,12.14,12.14,0,0,0-2.72-8.23,12.58,12.58,0,0,0-7.67-4c-1.66-.22-6.61-.34-14.88-.34H520Z"/><path d="M596,516.08h20.38v54.65q0,13,.76,16.87a16.32,16.32,0,0,0,6.23,9.94q4.92,3.76,13.45,3.76c5.79,0,10.14-1.19,13.08-3.55a14,14,0,0,0,5.3-8.71q.9-5.14.9-17.13V516.08h20.37v53q0,18.18-1.65,25.67a28.37,28.37,0,0,1-6.09,12.67,30.78,30.78,0,0,1-11.88,8.23q-7.43,3-19.41,3.05-14.44,0-21.92-3.33a31.21,31.21,0,0,1-11.8-8.67A27.84,27.84,0,0,1,598,595.52q-2-8.67-2-25.62Z"/><path d="M715.46,617V533.15H685.52V516.08h80.19v17.07H735.83V617Z"/><line class="cls-3" x1="15.82" y1="802.75" x2="758.3" y2="802.41"/><line class="cls-3" x1="15.18" y1="865.47" x2="757.92" y2="865.13"/><path d="M16,852.51V817.37h4.4a16.44,16.44,0,0,1,4.69.54,6.68,6.68,0,0,1,3,1.84,9.62,9.62,0,0,1,2,3.36,11.85,11.85,0,0,1,.74,4.08,9.13,9.13,0,0,1-2.41,6.4A7.43,7.43,0,0,1,32,836.94a10.74,10.74,0,0,1,1.37,5.5,10.41,10.41,0,0,1-2.42,7,8,8,0,0,1-3.29,2.44,16.27,16.27,0,0,1-5,.66Zm4.42-20H21.8a4.59,4.59,0,0,0,3.62-1.31,5.74,5.74,0,0,0,1.14-3.86,5.44,5.44,0,0,0-1.17-3.77A4.38,4.38,0,0,0,22,822.24H20.42Zm0,15.06h2.73a6,6,0,0,0,4.4-1.41A5.3,5.3,0,0,0,29,842.25a5.44,5.44,0,0,0-1.42-3.83c-.93-1-2.57-1.53-4.95-1.53H20.42Z"/><path d="M57,822.35H45.25v8.45h11.4v5H45.25v11.75H57v5H40.83V817.37H57Z"/><path d="M74.57,837.53l9.07,15H78.23l-8.36-14.38h-.79v14.38H64.66V817.37h5.18c3.86,0,6.66.87,8.38,2.62a10.55,10.55,0,0,1,2.84,7.69,11.29,11.29,0,0,1-1.78,6.41A7.85,7.85,0,0,1,74.57,837.53Zm-5.49-4h1.4q6.27,0,6.28-5.76,0-5.38-6.11-5.39H69.08Z"/><path d="M99.83,837.53l9.07,15h-5.41l-8.37-14.38h-.79v14.38H89.91V817.37h5.18c3.86,0,6.66.87,8.38,2.62a10.51,10.51,0,0,1,2.84,7.69,11.29,11.29,0,0,1-1.78,6.41A7.86,7.86,0,0,1,99.83,837.53Zm-5.5-4h1.4q6.27,0,6.28-5.76,0-5.38-6.11-5.39H94.33Z"/><path d="M119.58,817.37v35.14h-4.42V817.37Z"/><path d="M144.63,822.35H132.89v8.45h11.4v5h-11.4v11.75h11.74v5H128.48V817.37h16.15Z"/><path d="M168.86,822.58l-3.59,2.55a7.4,7.4,0,0,0-1.91-2.74,4,4,0,0,0-2.45-.72,4,4,0,0,0-3,1.25,4.23,4.23,0,0,0-1.22,3.1c0,1.71,1.07,3.09,3.19,4.15l2.92,1.43a12.72,12.72,0,0,1,5.22,4.22,10.86,10.86,0,0,1,1.65,6.12,12,12,0,0,1-2.69,8,8.53,8.53,0,0,1-6.74,3.18,8.15,8.15,0,0,1-6.3-2.72,13.57,13.57,0,0,1-3-7.64l4.48-1.17a10.29,10.29,0,0,0,1.06,4.27,4.37,4.37,0,0,0,4,2.28,4.27,4.27,0,0,0,3.43-1.66,6.36,6.36,0,0,0,1.37-4.21,6.88,6.88,0,0,0-.24-1.87,4.93,4.93,0,0,0-.74-1.57,5.66,5.66,0,0,0-1.3-1.34,10.9,10.9,0,0,0-1.9-1.2l-2.82-1.41q-6-3-6-8.91a9.23,9.23,0,0,1,2.52-6.62,8.26,8.26,0,0,1,6.28-2.69Q166,816.68,168.86,822.58Z"/><path d="M205.28,822.35h-10.2v8.45h9.84v5h-9.84v16.74h-4.42V817.37h14.62Z"/><path d="M210.85,834.77A19,19,0,0,1,215.38,822a13.76,13.76,0,0,1,10.85-5.32q6.26,0,10.73,5.36a19.47,19.47,0,0,1,4.5,12.91,19.1,19.1,0,0,1-4.52,12.86,13.67,13.67,0,0,1-21.13.59Q210.86,843.23,210.85,834.77Zm4.45.06a14,14,0,0,0,3.27,9.57,9.57,9.57,0,0,0,15.26-.06,15.65,15.65,0,0,0,0-18.83,9.69,9.69,0,0,0-15.42,0A14.13,14.13,0,0,0,215.3,834.83Z"/><path d="M258.8,837.53l9.07,15h-5.41l-8.37-14.38h-.79v14.38h-4.42V817.37h5.18q5.81,0,8.38,2.62a10.51,10.51,0,0,1,2.85,7.69,11.37,11.37,0,0,1-1.78,6.41A7.9,7.9,0,0,1,258.8,837.53Zm-5.5-4h1.4q6.29,0,6.28-5.76,0-5.38-6.11-5.39H253.3Z"/><path d="M296.06,822.35v30.16h-4.42V822.35h-6.73v-5h17.86v5Z"/><path d="M313,831.12h12.63V817.37h4.42v35.14h-4.42V836.09H313v16.42h-4.42V817.37H313Z"/><path d="M355.09,822.35H343.35v8.45h11.4v5h-11.4v11.75h11.74v5H338.94V817.37h16.15Z"/><path d="M378.05,817.37l7.63,23.48,8-25.19,7.63,25.19,8.09-23.48h4.81l-13.09,37.37-7.53-24.9-7.85,24.92-12.45-37.39Z"/><path d="M416.88,834.77A19,19,0,0,1,421.41,822a13.77,13.77,0,0,1,10.85-5.32q6.25,0,10.73,5.36a19.47,19.47,0,0,1,4.5,12.91A19.1,19.1,0,0,1,443,847.84a13.66,13.66,0,0,1-21.12.59Q416.89,843.23,416.88,834.77Zm4.46.06a14,14,0,0,0,3.26,9.57,9.66,9.66,0,0,0,7.49,3.76,9.77,9.77,0,0,0,7.78-3.82,15.67,15.67,0,0,0,0-18.83,9.54,9.54,0,0,0-7.69-3.82,9.67,9.67,0,0,0-7.73,3.82A14.12,14.12,0,0,0,421.34,834.83Z"/><path d="M464.83,837.53l9.07,15h-5.41l-8.36-14.38h-.8v14.38h-4.42V817.37h5.18q5.81,0,8.38,2.62a10.51,10.51,0,0,1,2.85,7.69,11.37,11.37,0,0,1-1.78,6.41A7.88,7.88,0,0,1,464.83,837.53Zm-5.5-4h1.41q6.27,0,6.27-5.76c0-3.59-2-5.39-6.1-5.39h-1.58Z"/><path d="M484.59,817.37v30.15h8.61v5h-13V817.37Z"/><path d="M499.25,852.51V817.37h6.15a19.12,19.12,0,0,1,7,1,12.87,12.87,0,0,1,5,3.49q4.53,5,4.53,13c0,5.4-1.57,9.76-4.72,13.11a13.56,13.56,0,0,1-5,3.48,19.18,19.18,0,0,1-6.89,1Zm4.42-5h2a14.09,14.09,0,0,0,4.95-.75,10,10,0,0,0,3.56-2.52,13.27,13.27,0,0,0,3.26-9.31,13.53,13.53,0,0,0-3.22-9.38q-2.91-3.21-8.55-3.21h-2Z"/><path d="M559.32,822.35H547.59v8.45H559v5H547.59v11.75h11.73v5H543.17V817.37h16.15Z"/><path d="M568.47,817.37l8.1,24.35,8.21-24.35h4.84l-13.14,37.77-12.85-37.77Z"/><path d="M611.28,822.35H599.54v8.45h11.4v5h-11.4v11.75h11.74v5H595.13V817.37h16.15Z"/><path d="M628.87,837.53l9.08,15h-5.41l-8.36-14.38h-.8v14.38H619V817.37h5.18c3.87,0,6.67.87,8.38,2.62a10.51,10.51,0,0,1,2.85,7.69,11.3,11.3,0,0,1-1.79,6.41A7.79,7.79,0,0,1,628.87,837.53Zm-5.49-4h1.41q6.27,0,6.27-5.76,0-5.38-6.11-5.39h-1.57Z"/><path d="M648.83,837.32l-9.56-20h5.09l6.69,14,6.72-14h5.08l-9.6,20v15.19h-4.42Z"/><path d="M681.94,852.51V817.37h6.14a19,19,0,0,1,7,1,12.9,12.9,0,0,1,5,3.49c3,3.3,4.53,7.65,4.53,13s-1.58,9.76-4.73,13.11a13.53,13.53,0,0,1-5,3.48,19.22,19.22,0,0,1-6.89,1Zm4.42-5h2a14.19,14.19,0,0,0,5-.75,10.07,10.07,0,0,0,3.56-2.52,13.27,13.27,0,0,0,3.26-9.31,13.53,13.53,0,0,0-3.22-9.38q-2.91-3.21-8.56-3.21h-2Z"/><path d="M727.77,844H715.23L712,852.51H707.2l14.5-37.35,14,37.35h-4.84ZM726,839,721.62,827,717.07,839Z"/><path d="M744.56,837.32l-9.56-20h5.08l6.7,14,6.71-14h5.08l-9.59,20v15.19h-4.42Z"/><path class="cls-4" d="M375.88,717.06l-2.53-68.43-124.81.07c6,16.77,23.47,52.68,23.47,52.68C288.15,715.39,375.88,717.06,375.88,717.06Z"/><path class="cls-4" d="M484.61,707.37c18.62-8.71,31.25-44.43,35.67-58.8l-127.22.06-5,68.23C393.54,718.68,484.61,707.37,484.61,707.37Z"/><path class="cls-4" d="M500.76,703.72l51.76-11L500.46,709.2,481,733.57l9.74-20.41c-14.64,7-102.64,11.62-102.64,11.62l-7,34.11-5.81-34.11c-6.4,1.22-95.64-7.57-95.64-7.57l5.79,13.7-15.25-19.18h-4.56c-4.06-.63-28.36-10-42.39-15.51-4.45-1.21-8.11-2.54-10-4,0,0,4.11,1.64,10,4,15.64,4.22,41.79,7,41.79,7-2-3.4-22.88-39.86-31.26-54.5l-95.63,0c54.58,76.29,143.69,126,244.48,126S572.47,724.86,627,648.53l-91.59,0C525.79,665.39,500.76,703.72,500.76,703.72Z"/><path class="cls-5" d="M392.19,441.78l0,28,172.66-.08c-.29-26.06-5.77-51.47-5.77-51.47C520.73,435.32,392.19,441.78,392.19,441.78Z"/><path class="cls-5" d="M528.28,325.37s-75.73,21-136,22.9l-.06,82.85S529.25,423.74,556.35,407C556.35,407,537.73,333,528.28,325.37Z"/><path class="cls-5" d="M374.17,348.8c-60.3-1.8-133.41-20.26-133.41-20.26-8.52,7-24.77,84.37-24.77,84.37,22.55,12.18,155.18,17.61,155.18,17.61Z"/><path class="cls-5" d="M212.79,423.28c-4.56,6.7-7,46.6-7,46.6l165.43-.08v-28C237.76,437.28,212.79,423.28,212.79,423.28Z"/><path class="cls-4" d="M195.11,413.24c-9.73-1.27-36.19-13.47-51.46-20.82-5.56-2-9.8-3.94-11.28-5.53,0,0,4.56,2.3,11.28,5.53,19.37,7,54.35,15,54.35,15,6.1-20.58,31.79-83.76,31.79-83.76-14.64-4.05-28.19-9.76-33.23-12.74a10,10,0,0,1-3.93-2.48s1.4,1,3.93,2.48c10.64,4.58,36.89,7.26,36.89,7.26,14-31.17,38-60.95,49.48-74.31a72.28,72.28,0,0,1,6.51-7.34s-2.51,2.69-6.51,7.34c-20.27,25.63-39.13,76.74-39.13,76.74,28.64,11.56,131,14.86,131,14.86l11-115.63.22,2.61,5.84,113c56.05,1.51,135.22-15.59,135.22-15.59C519.74,297.05,474.64,234,474.64,234,498.4,251.67,535,317.45,535,317.45c9.13,1.78,39-5.5,39-5.5-2.42,3-34.09,11-34.09,11,14.3,21.31,29.87,80.39,29.87,80.39,11,.61,67.6-16.66,67.6-16.66-3.65,5.91-63.33,27-63.33,27,1.6,5.89,6.3,46.29,7.39,56l99.87,0c-16.42-151.06-144-268.59-298.93-268.51S99.93,318.88,83.66,469.94l103.84-.06C184.43,465.63,195.11,413.24,195.11,413.24Z"/></svg>